<svg width="47.004913" height="47.004456" viewBox="0 0 47.0049 47.0045" fill="none" xmlns="http://www.w3.org/2000/svg" xmlns:xlink="http://www.w3.org/1999/xlink">
	<desc>
			Created with Pixso.
	</desc>
	<defs/>
	<path id="Vector" d="M12.25 28C11.27 28 10.3 28.21 9.41 28.63C8.52 29.04 7.73 29.65 7.1 30.4C6.46 31.15 6 32.03 5.75 32.98C5.49 33.93 5.44 34.92 5.61 35.89C5.77 36.86 6.15 37.78 6.71 38.58C7.27 39.39 7.99 40.07 8.84 40.57C9.69 41.06 10.63 41.37 11.61 41.46C12.59 41.56 13.57 41.44 14.5 41.11" stroke="#0956AF" stroke-opacity="1.000000" stroke-width="2.000000" stroke-linejoin="round" stroke-linecap="round"/>
	<path id="Vector" d="M6.09 31.61C4.75 30.96 3.58 29.99 2.71 28.78C1.83 27.56 1.27 26.16 1.07 24.67C0.88 23.19 1.06 21.69 1.59 20.29C2.12 18.89 2.99 17.65 4.13 16.68M4.19 16.49C3.46 15.39 3.13 14.06 3.28 12.74C3.43 11.42 4.04 10.2 5.01 9.28C5.97 8.37 7.23 7.83 8.55 7.75C9.88 7.68 11.19 8.07 12.25 8.87M12.79 9.02C12.43 8.25 12.24 7.42 12.25 6.58C12.26 5.74 12.45 4.9 12.82 4.15C13.19 3.39 13.73 2.73 14.39 2.21C15.05 1.68 15.82 1.32 16.65 1.13C17.47 0.95 18.32 0.95 19.14 1.14C19.97 1.33 20.73 1.7 21.39 2.23C22.05 2.76 22.58 3.43 22.95 4.19C23.31 4.95 23.5 5.78 23.5 6.62M34.21 9.02C34.57 8.25 34.76 7.42 34.75 6.58C34.74 5.74 34.55 4.9 34.18 4.15C33.81 3.39 33.27 2.73 32.61 2.21C31.95 1.68 31.18 1.32 30.35 1.13C29.53 0.95 28.68 0.95 27.86 1.14C27.03 1.33 26.27 1.7 25.61 2.23C24.95 2.76 24.42 3.43 24.05 4.19C23.69 4.95 23.5 5.78 23.5 6.62L23.5 41.5C23.5 42.69 23.03 43.83 22.18 44.68C21.34 45.52 20.19 46 19 46C17.81 46 16.66 45.52 15.82 44.68C14.97 43.83 14.5 42.69 14.5 41.5M23.5 12.25C23.5 14.04 24.21 15.75 25.48 17.02C26.74 18.29 28.46 19 30.25 19M42.87 16.68C43.85 17.52 44.64 18.57 45.18 19.74C45.72 20.92 46 22.2 46 23.5C46 25.08 45.59 26.57 44.87 27.86M42.8 16.49C43.54 15.39 43.87 14.06 43.72 12.74C43.57 11.42 42.96 10.2 41.99 9.28C41.03 8.37 39.77 7.83 38.45 7.75C37.12 7.68 35.81 8.07 34.75 8.87M28 46C26.81 46 25.66 45.52 24.82 44.68C23.97 43.83 23.5 42.69 23.5 41.5" stroke="#0956AF" stroke-opacity="1.000000" stroke-width="2.000000" stroke-linejoin="round" stroke-linecap="round"/>
	<path id="Vector" d="M38.5 32.5L34.75 39.25L43.75 39.25L40 46" stroke="#F8B324" stroke-opacity="1.000000" stroke-width="2.000000" stroke-linejoin="round" stroke-linecap="round"/>
</svg>
