<svg width="49.000000" height="51.000000" viewBox="0 0 49 51" fill="none" xmlns="http://www.w3.org/2000/svg" xmlns:xlink="http://www.w3.org/1999/xlink">
	<desc>
			Created with Pixso.
	</desc>
	<defs/>
	<path id="Ellipse 24" d="M2.86 23.63C2.86 20.79 3.42 17.97 4.51 15.35C5.6 12.72 7.19 10.34 9.2 8.33C11.21 6.32 13.59 4.73 16.22 3.64C18.84 2.55 21.65 2 24.5 2C27.34 2 30.15 2.55 32.77 3.64C35.4 4.73 37.78 6.32 39.79 8.33C41.8 10.34 43.39 12.72 44.48 15.35C45.57 17.97 46.13 20.79 46.13 23.63L35.31 23.63C35.31 22.21 35.03 20.8 34.49 19.49C33.94 18.18 33.15 16.98 32.14 15.98C31.14 14.98 29.95 14.18 28.63 13.64C27.32 13.09 25.92 12.81 24.5 12.81C23.07 12.81 21.67 13.09 20.36 13.64C19.04 14.18 17.85 14.98 16.85 15.98C15.84 16.98 15.05 18.18 14.5 19.49C13.96 20.8 13.68 22.21 13.68 23.63L2.86 23.63Z" fill="#B01616" fill-opacity="1.000000" fill-rule="nonzero"/>
	<path id="Ellipse 25" d="M2.86 23.63C2.86 18.71 4.54 13.94 7.61 10.1C10.69 6.26 14.98 3.59 19.78 2.52C24.57 1.44 29.6 2.04 34.01 4.2C38.43 6.36 41.98 9.97 44.07 14.42L34.28 19.02C33.24 16.8 31.46 15 29.25 13.91C27.05 12.83 24.53 12.54 22.14 13.07C19.74 13.61 17.59 14.95 16.05 16.87C14.52 18.78 13.68 21.17 13.68 23.63L2.86 23.63Z" fill="#FF6600" fill-opacity="1.000000" fill-rule="nonzero"/>
	<path id="Ellipse 26" d="M2.86 23.63C2.86 19.52 4.03 15.5 6.23 12.04C8.43 8.57 11.57 5.8 15.28 4.05C19 2.31 23.13 1.65 27.21 2.17C31.28 2.68 35.12 4.34 38.28 6.96L31.39 15.29C29.81 13.99 27.89 13.15 25.85 12.9C23.81 12.64 21.75 12.97 19.89 13.84C18.03 14.72 16.46 16.1 15.36 17.83C14.26 19.57 13.68 21.58 13.68 23.63L2.86 23.63Z" fill="#FF9900" fill-opacity="1.000000" fill-rule="nonzero"/>
	<path id="Ellipse 27" d="M2.86 23.63C2.86 20.33 3.62 17.07 5.07 14.11C6.52 11.15 8.63 8.56 11.24 6.53C13.84 4.51 16.88 3.11 20.11 2.44C23.34 1.78 26.68 1.85 29.88 2.67L27.19 13.15C25.59 12.74 23.92 12.7 22.3 13.04C20.69 13.37 19.17 14.07 17.87 15.08C16.56 16.09 15.51 17.39 14.78 18.87C14.06 20.35 13.68 21.98 13.68 23.63L2.86 23.63Z" fill="#FFCC00" fill-opacity="1.000000" fill-rule="nonzero"/>
	<path id="Ellipse 28" d="M2.86 23.63C2.86 18.59 4.62 13.72 7.83 9.84C11.04 5.96 15.5 3.32 20.44 2.38L22.47 13C20 13.48 17.77 14.79 16.16 16.73C14.56 18.67 13.68 21.11 13.68 23.63L2.86 23.63Z" fill="#669900" fill-opacity="1.000000" fill-rule="nonzero"/>
	<path id="Ellipse 29" d="M2.86 23.63C2.86 20.21 3.67 16.85 5.22 13.81C6.77 10.77 9.02 8.13 11.78 6.13L18.14 14.88C16.76 15.88 15.63 17.2 14.86 18.72C14.08 20.24 13.68 21.92 13.68 23.63L2.86 23.63Z" fill="#99CC33" fill-opacity="1.000000" fill-rule="nonzero"/>
	<path id="Ellipse 30" d="M2.86 23.63C2.86 19.98 3.78 16.4 5.54 13.21L15.02 18.42C14.14 20.01 13.68 21.81 13.68 23.63L2.86 23.63Z" fill="#3399CC" fill-opacity="1.000000" fill-rule="nonzero"/>
	<path id="Polygon 2" d="M18.04 10.03L28.33 21.77L23.07 24.81L18.04 10.03Z" fill="#ADB5BD" fill-opacity="1.000000" fill-rule="nonzero"/>
	<path id="Polygon 3" d="M28.73 28.45L22.99 24.59L28.25 21.55L28.73 28.45Z" fill="#ADB5BD" fill-opacity="1.000000" fill-rule="nonzero"/>
	<path id="Норма" d="M12.7 44.72Q13.55 45.14 14.76 45.14Q15.95 45.14 16.8 44.72Q17.15 44.55 17.44 44.3Q17.85 43.95 18.12 43.45Q18.59 42.59 18.64 41.29Q18.66 40.67 18.66 40.1Q18.66 39.54 18.64 38.92Q18.59 37.63 18.1 36.77Q17.82 36.27 17.4 35.91Q17.11 35.66 16.75 35.48Q15.89 35.06 14.76 35.06Q13.61 35.06 12.75 35.48Q12.39 35.66 12.09 35.92Q11.68 36.27 11.4 36.77Q10.92 37.63 10.87 38.92Q10.85 39.54 10.85 40.1Q10.85 40.67 10.87 41.29Q10.92 42.59 11.38 43.45Q11.66 43.95 12.06 44.31Q12.35 44.55 12.7 44.72ZM1.35 44.93Q1.43 45 1.56 45L2.27 45Q2.4 45 2.49 44.93Q2.5 44.92 2.51 44.91Q2.55 44.87 2.57 44.83Q2.61 44.76 2.61 44.67L2.61 40.65L7.42 40.65L7.42 44.67Q7.42 44.77 7.46 44.84Q7.48 44.87 7.51 44.91Q7.54 44.94 7.58 44.96Q7.65 45 7.74 45L8.46 45Q8.59 45 8.67 44.93Q8.69 44.92 8.7 44.91Q8.74 44.87 8.76 44.83Q8.79 44.76 8.79 44.67L8.79 35.53Q8.79 35.41 8.74 35.33Q8.72 35.31 8.7 35.29Q8.68 35.27 8.66 35.25Q8.58 35.2 8.46 35.2L7.74 35.2Q7.66 35.2 7.59 35.23Q7.55 35.25 7.51 35.29Q7.5 35.3 7.48 35.32Q7.42 35.4 7.42 35.53L7.42 39.4L2.61 39.4L2.61 35.53Q2.61 35.41 2.55 35.33Q2.53 35.31 2.51 35.29Q2.5 35.27 2.48 35.26Q2.4 35.2 2.27 35.2L1.56 35.2Q1.43 35.2 1.36 35.25Q1.34 35.27 1.32 35.29Q1.31 35.3 1.3 35.31Q1.23 35.4 1.23 35.53L1.23 44.67Q1.23 44.77 1.27 44.85Q1.29 44.88 1.32 44.91Q1.33 44.92 1.35 44.93ZM20.82 44.93Q20.9 45 21.03 45L21.77 45Q21.9 45 21.98 44.93Q22 44.92 22.02 44.91Q22.05 44.87 22.07 44.83Q22.11 44.76 22.11 44.67L22.11 41.17L24.59 41.17Q25.62 41.17 26.38 40.84Q26.93 40.6 27.3 40.19Q27.45 40.03 27.57 39.84Q27.99 39.18 27.99 38.19Q27.99 37.2 27.57 36.53Q27.43 36.31 27.26 36.13Q26.9 35.76 26.38 35.53Q25.62 35.2 24.59 35.2L21.03 35.2Q20.91 35.2 20.83 35.25Q20.81 35.27 20.79 35.29Q20.78 35.3 20.77 35.31Q20.71 35.4 20.71 35.53L20.71 44.67Q20.71 44.77 20.75 44.85Q20.77 44.88 20.79 44.91Q20.81 44.92 20.82 44.93ZM29.86 44.96Q29.93 45 30.02 45L30.7 45Q30.8 45 30.87 44.95Q30.9 44.93 30.93 44.91Q30.97 44.87 30.99 44.83Q31.02 44.76 31.02 44.67L31.02 37.79L33.38 42.35Q33.45 42.49 33.54 42.57Q33.64 42.64 33.83 42.64L34.26 42.64Q34.43 42.64 34.54 42.57Q34.56 42.55 34.58 42.54Q34.66 42.46 34.71 42.35L37.05 37.79L37.05 44.67Q37.05 44.77 37.09 44.84Q37.11 44.87 37.14 44.91Q37.17 44.94 37.2 44.96Q37.28 45 37.37 45L38.06 45Q38.18 45 38.26 44.93Q38.28 44.92 38.3 44.91Q38.33 44.87 38.35 44.83Q38.39 44.76 38.39 44.67L38.39 35.53Q38.39 35.41 38.33 35.33Q38.32 35.31 38.3 35.29Q38.28 35.27 38.26 35.25Q38.18 35.2 38.06 35.2L37.37 35.2Q37.2 35.2 37.13 35.28Q37.12 35.28 37.12 35.28Q37.05 35.36 37.02 35.42L34.04 41.07L31.08 35.42Q31.06 35.36 30.97 35.28L30.97 35.28Q30.89 35.2 30.72 35.2L30.02 35.2Q29.93 35.2 29.86 35.23Q29.82 35.25 29.79 35.29Q29.77 35.31 29.75 35.33Q29.69 35.41 29.69 35.53L29.69 44.67Q29.69 44.76 29.73 44.83Q29.75 44.87 29.79 44.91Q29.82 44.94 29.86 44.96ZM40.07 44.98Q40.11 45 40.15 45L40.87 45Q41.04 45 41.12 44.91Q41.2 44.83 41.22 44.76L41.99 42.77L46.58 42.77L47.35 44.76Q47.38 44.83 47.45 44.91Q47.53 45 47.7 45L48.41 45Q48.46 45 48.51 44.98Q48.56 44.96 48.61 44.91Q48.66 44.86 48.68 44.8Q48.69 44.76 48.69 44.71Q48.69 44.65 48.67 44.56L45.21 35.5Q45.15 35.36 45.05 35.28Q44.96 35.2 44.76 35.2L43.81 35.2Q43.61 35.2 43.51 35.28Q43.42 35.36 43.36 35.5L39.89 44.56Q39.87 44.65 39.87 44.71Q39.87 44.76 39.89 44.8Q39.91 44.86 39.96 44.91Q40.01 44.96 40.07 44.98ZM16.11 43.6Q15.54 43.95 14.76 43.95Q13.98 43.95 13.41 43.61Q13.19 43.48 13.01 43.3Q12.32 42.66 12.26 41.21Q12.25 40.59 12.25 40.09Q12.25 39.59 12.26 38.98Q12.31 38.01 12.64 37.41Q12.9 36.92 13.31 36.65Q13.4 36.58 13.51 36.53Q14.06 36.25 14.76 36.25Q15.46 36.25 16 36.53Q16.11 36.58 16.21 36.65Q16.61 36.92 16.88 37.41Q17.21 38.01 17.24 38.98Q17.26 39.59 17.26 40.09Q17.26 40.59 17.24 41.21Q17.18 42.66 16.5 43.3Q16.32 43.48 16.11 43.6ZM24.51 40L22.09 40L22.09 36.37L24.51 36.37Q25.58 36.37 26.08 36.85Q26.17 36.93 26.24 37.02Q26.59 37.47 26.59 38.19Q26.59 38.92 26.23 39.36Q26.16 39.46 26.07 39.54Q25.55 40 24.51 40ZM44.28 36.59L46.17 41.56L42.39 41.56L44.28 36.59Z" fill="#0956AF" fill-opacity="1.000000" fill-rule="evenodd"/>
</svg>
